<svg xmlns="http://www.w3.org/2000/svg" viewBox="0 0 187.23 125.4"><defs><style>.cls-1{fill:#264989;}.cls-1,.cls-2{fill-rule:evenodd;}.cls-2{fill:#feca15;}</style></defs><title>Ресурс 1</title><g id="Слой_2" data-name="Слой 2"><g id="Layer_1" data-name="Layer 1"><path class="cls-1" d="M112.31,88.78v18.5a18.11,18.11,0,0,0,19.05,18.09c33.91-1.82,54.13-5.88,54.71-11.24,1.72-15.9,1.64-40.48-1-51-2.53-10.21-10.37-25.82-60.26-50.59C100.14.28,82.35,5,67.76,12.55,30.45,31.83,11.79,46,7.68,62.85,3.72,79.17,5.82,112.29,6.5,114c.61,1.5,1.55,7.94,50.3,11.06A18.11,18.11,0,0,0,76.08,107V88.78a18.13,18.13,0,0,1,10-16.22h0A18.12,18.12,0,0,1,112.31,88.78Z"/><path class="cls-2" d="M107,83.76v18.5a18.1,18.1,0,0,0,19,18.09c33.91-1.81,54.13-5.87,54.71-11.23,1.73-15.91,1.65-40.49-1-51-2.52-10.21-10.36-25.82-60.25-50.59C94.81-4.74,77,0,62.42,7.53c-37.3,19.28-56,33.41-60.07,50.3C-1.62,74.15.49,107.28,1.17,109c.61,1.51,1.54,7.94,50.3,11.07a18.12,18.12,0,0,0,19.28-18.08V83.76a18.11,18.11,0,0,1,10-16.21h0A18.11,18.11,0,0,1,107,83.76Z"/></g></g></svg>