<svg xmlns="http://www.w3.org/2000/svg" viewBox="0 0 187.23 124.09"><defs><style>.cls-1{fill:#feca15;}.cls-1,.cls-2{fill-rule:evenodd;}.cls-2{fill:#264989;}</style></defs><title>Ресурс 2</title><g id="Слой_2" data-name="Слой 2"><g id="Слой_3" data-name="Слой 3"><path class="cls-1" d="M112.31,87.48V106a18.11,18.11,0,0,0,19.05,18.09c33.91-1.82,54.13-5.88,54.71-11.24,1.72-15.91,1.64-40.49-1-51-2.53-10.2-10.37-25.81-60.26-50.58-24.71-12.27-42.5-7.54-57.09,0-37.31,19.28-56,33.41-60.08,50.3C3.72,77.87,5.82,111,6.5,112.67c.61,1.5,1.55,7.94,50.3,11.06a18.11,18.11,0,0,0,19.28-18.07V87.48a18.12,18.12,0,0,1,10-16.22h0A18.12,18.12,0,0,1,112.31,87.48Z"/><path class="cls-2" d="M107,83.76v18.5a18.1,18.1,0,0,0,19,18.09c33.91-1.81,54.13-5.87,54.71-11.23,1.73-15.91,1.65-40.49-1-51-2.52-10.21-10.36-25.82-60.25-50.59C94.81-4.74,77,0,62.42,7.53c-37.3,19.28-56,33.41-60.07,50.3C-1.62,74.15.49,107.28,1.17,109c.61,1.51,1.54,7.94,50.3,11.07a18.12,18.12,0,0,0,19.28-18.08V83.76a18.11,18.11,0,0,1,10-16.21h0A18.11,18.11,0,0,1,107,83.76Z"/></g></g></svg>